<?xml version="1.0" encoding="UTF-8" standalone="no"?>
<!-- Created with Inkscape (http://www.inkscape.org/) -->

<svg
   width="160mm"
   height="200mm"
   viewBox="0 0 160 200"
   version="1.1"
   id="svg1"
   sodipodi:docname="base.svg"
   inkscape:version="1.4 (1:1.4+202410161351+e7c3feb100)"
   xmlns:inkscape="http://www.inkscape.org/namespaces/inkscape"
   xmlns:sodipodi="http://sodipodi.sourceforge.net/DTD/sodipodi-0.dtd"
   xmlns="http://www.w3.org/2000/svg"
   xmlns:svg="http://www.w3.org/2000/svg">
  <sodipodi:namedview
     id="namedview1"
     pagecolor="#ffffff"
     bordercolor="#000000"
     borderopacity="0.25"
     inkscape:showpageshadow="2"
     inkscape:pageopacity="0.0"
     inkscape:pagecheckerboard="true"
     inkscape:deskcolor="#d1d1d1"
     inkscape:document-units="mm"
     showguides="true"
     inkscape:zoom="0.52420745"
     inkscape:cx="-497.89449"
     inkscape:cy="574.20016"
     inkscape:window-width="1920"
     inkscape:window-height="1022"
     inkscape:window-x="0"
     inkscape:window-y="0"
     inkscape:window-maximized="1"
     inkscape:current-layer="layer1" />
  <defs
     id="defs1" />
  <g
     inkscape:label="Capa 1"
     inkscape:groupmode="layer"
     id="layer1"
     transform="translate(0,6.8050431)">
    <path
       style="fill:#000000;fill-opacity:1;stroke-width:0.421883"
       d="m 76.758594,8.0917849 c 0,0 -29.423118,0.168144 -40.796947,16.2639361 -11.373824,16.095787 -9.842673,41.832336 -9.842673,41.832336 0,0 -0.376856,31.10905 2.832539,40.606413 3.777702,11.17909 5.172553,8.87733 5.172553,8.87733 l -0.964786,-14.81377 5.969771,21.21187 c 0,0 6.135141,-13.00153 8.818195,-11.05952 2.683057,1.94198 -0.383294,14.37084 -0.383294,14.37084 l 15.715036,-8.73903 c 0,0 9.58234,7.57381 7.665871,9.32161 -1.916469,1.7478 10.157269,-9.12742 15.523359,-7.96221 5.36605,1.16519 14.948362,0.38838 17.631422,5.43761 2.68306,5.0492 15.90666,-14.56503 15.90666,-14.56503 0,0 5.94107,5.24342 4.40788,10.87521 -1.53317,5.63184 9.91271,-23.711853 8.1879,-27.401643 C 130.87726,88.657924 132.3758,35.689883 127.24932,26.581861 121.96963,17.201666 101.82538,7.8136239 85.931111,8.0727629"
       id="path8"
       sodipodi:nodetypes="cscscccsccssscsssc"
       inkscape:label="pelo_atrás" />
    <g
       id="g20"
       inkscape:label="cuello"
       transform="translate(-21.695841)">
      <rect
         style="fill:#e6a25c;fill-opacity:1;stroke-width:0.515075"
         id="rect15"
         width="32.740044"
         height="30.351717"
         x="86.914742"
         y="118.93823" />
      <path
         id="rect15-9"
         style="fill:#cd8f50;fill-opacity:1;stroke-width:0.428474"
         d="m 86.915205,117.98639 v 14.79785 c 4.22817,1.79652 9.360536,3.50604 15.888975,3.62701 7.39134,0.13685 12.66244,-2.32929 16.85076,-4.50206 v -13.9228 z" />
    </g>
    <g
       id="g21"
       transform="translate(-21.695841)">
      <path
         style="display:inline;fill:#ecb379;fill-opacity:1;stroke-width:0.31821"
         d="m 56.846887,66.295434 c 0,0 -2.053192,15.752187 -0.340006,29.588113 0.879253,7.100963 6.967932,15.964733 13.641819,20.642393 3.336947,2.33884 6.867487,5.16407 11.880467,7.44754 5.012979,2.28344 11.508401,5.65015 20.775113,5.82186 8.43217,0.15618 14.19627,-3.10028 18.62424,-5.41223 4.42794,-2.31194 7.51976,-5.30433 10.60741,-7.86992 6.17531,-5.13113 12.14472,-14.68672 12.87236,-22.085043 1.45527,-14.796645 -2.74336,-30.951189 -2.74336,-30.951189 0,0 -7.9597,-30.690027 -32.33632,-31.003191 L 85.452058,32.160605 c 0,0 -22.635392,2.505306 -28.605171,34.134829 z"
         id="path10-4"
         inkscape:label="cara"
         sodipodi:nodetypes="cssssssscscc" />
      <path
         id="path10-4-7"
         style="display:inline;fill:#e6a25c;fill-opacity:1;stroke-width:0.31821"
         inkscape:label="sombra_cara"
         d="m 57.143702,64.511181 c -0.144604,0.658248 -0.291389,1.311949 -0.420738,1.997273 0,0 -2.052885,15.752369 -0.3397,29.588283 0.879253,7.100953 6.968145,15.964623 13.642033,20.642313 3.336946,2.33884 6.867521,5.16376 11.880502,7.44723 5.012979,2.28344 11.508203,5.65065 20.774921,5.82236 3.71622,0.0689 6.88972,-0.54285 9.6835,-1.42674 -0.59641,0.0174 -1.20433,0.0219 -1.82537,0.011 -10.711529,-0.17932 -18.219377,-3.69608 -24.013948,-6.08104 -5.79457,-2.38496 -9.87567,-5.33508 -13.732892,-7.77791 C 65.077573,109.8479 58.039711,100.58942 57.023375,93.172797 55.439755,81.616509 56.599203,69.189083 57.143693,64.510288 Z" />
    </g>
    <path
       id="path31-5"
       style="display:inline;fill:#000000;fill-opacity:1;stroke-width:0.4191"
       d="m 49.885755,21.856685 c 0,0 -28.766342,41.429854 -21.940537,60.365954 l 6.962629,-19.157454 c 0.145887,2.431671 4.731313,5.815055 5.927581,7.93573 l 1.035635,-8.638526 c 0,0 -0.982349,-5.549292 5.451796,-10.161063 -1.894797,14.187236 3.34544,17.948449 3.34544,17.948449 0,0 3.903958,-16.131495 6.209913,-25.016035 1.319203,7.974787 1.747865,16.246734 -3.335159,32.057243 4.315322,-9.17362 10.910948,-12.967929 10.841293,-31.441119 1.170797,6.530124 3.313331,13.299102 6.441667,18.29513 0,0 1.532528,-6.317999 1.47959,-27.746094 l 10.694566,-1.734152 1.435351,12.39606 3.607119,19.779688 4.256586,-26.114469 c 1.150474,11.880762 8.057525,17.6264 8.087205,23.259386 0,0 2.93377,-8.557767 5.30081,-22.739485 2.36948,8.895582 5.42557,15.99532 5.42557,15.99532 l 1.52068,12.604162 c 0,0 5.24023,-3.761212 3.34544,-17.948449 2.04867,7.402529 7.69813,11.091918 7.69813,11.091918 l 3.8753,9.628059 c 9.35526,-16.584178 -18.53352,-48.27171 -18.53352,-48.27171 l 3.2693,8.491687 c -0.49343,0.339708 -0.54649,0.377 -1.17461,0.807914 -0.57483,-1.553325 -1.18987,-3.152268 -1.88186,-4.834384 0,0 -2.01755,0.884261 -4.22947,1.859756 l -3.33563,0.444475 c -0.17008,0.06585 -0.3272,0.156325 -0.48211,0.251297 0.0444,-0.117744 0.0845,-0.226968 0.12922,-0.34543 l -1.532337,0.103961 c 0.247567,-2.504926 0.563977,-5.704507 0.563977,-5.704507 l -12.400211,1.918692 -0.207907,-2.25512 -17.474454,5.436841 -8.480229,-0.73588 c 0.197936,0.666161 0.370276,1.269071 0.54762,1.884311 -0.219907,-0.122602 -0.45079,-0.176924 -0.694964,-0.149798 L 58.25786,30.968831 c -1.721745,-0.75739 -4.187731,-1.854025 -4.187731,-1.854025 -0.692019,1.682115 -1.307038,3.281059 -1.881856,4.834383 -0.628135,-0.430915 -0.681184,-0.468205 -1.174631,-0.807913 l 3.269313,-8.491686 c 0,0 -5.204692,5.584509 -10.225386,13.243396 z"
       inkscape:label="chasquilla_nueva"
       inkscape:transform-center-x="-32.544325"
       inkscape:transform-center-y="30.580442"
       sodipodi:nodetypes="cccccccccccccccccccccccccccccccccccccccccccccc" />
    <path
       id="path43-5-1"
       style="display:inline;fill:#130f0f;fill-opacity:1;stroke-width:0.205483"
       d="m 107.99186,3.3949569 c 0,0 -4.67237,0.356098 -5.28558,9.7489811 l 0.4619,-0.520597 0.32476,-0.290585 c 1.34011,-5.6391681 4.91782,-7.0166451 4.91782,-7.0166451 0,0 -2.62052,-0.751434 -5.09317,6.4133781 0.18749,-5.7034141 4.67427,-8.3345321 4.67427,-8.3345321 z M 38.595931,23.325953 c 2.473819,1.067244 -15.091199,16.873679 -15.091199,16.873679 0,0 7.317379,0.391469 16.536252,-16.249955 z m 21.787706,4.132046 c 0,0 -7.362915,0.809092 -8.329188,22.131268 l 0.96064,-1.560984 C 52.71104,33.937367 60.383637,27.457999 60.383637,27.457999 Z m 38.641779,2.209284 c 0.966277,21.322177 8.329184,22.131268 8.329184,22.131268 0,0 -7.672577,-6.479368 -7.368527,-20.570283 z m -63.370082,8.403278 -1.831903,2.136437 c -0.903956,17.981029 -14.930863,27.384746 -14.930863,27.384746 0,0 12.909782,-2.10512 16.762766,-29.521183 z m 85.741816,0.374901 c 6.43941,19.907111 13.64682,17.932085 13.64682,17.932085 0,0 -8.96979,-3.299504 -12.32935,-16.806574 z"
       inkscape:label="mechones" />
    <path
       id="path3"
       style="fill:#000000;stroke-width:0.402274"
       d="m 57.675558,63.80402 c -11.804298,0 -17.006639,4.840409 -17.345993,5.168353 l -6.006555,-1.854845 -0.268486,1.073127 5.718423,3.119509 -0.07612,0.354435 c -0.161019,8.529829 3.424834,14.281324 3.424834,14.281324 0,0 3.741723,8.320494 17.535078,6.785804 10.448638,-1.16253 11.72596,-18.779017 11.745443,-19.060272 0,0 5.29693,-1.22426 7.995232,-1.275888 2.710732,-0.05187 8.075232,0.973591 8.075232,0.973591 0.649807,8.397903 2.674915,16.828528 11.660734,19.480459 13.79334,1.53469 17.53426,-6.785825 17.53426,-6.785825 0,0 3.58668,-5.751496 3.42565,-14.281324 l -0.34053,-1.582265 1.69934,-1.204094 -0.26849,-0.805459 -1.85077,0.783356 c -0.93596,-0.834717 -6.20335,-5.052118 -17.21911,-5.052118 -12.214356,0 -14.683174,5.497413 -14.683174,5.497413 l -0.0631,1.827015 C 81.589285,68.61397 75.398317,70.414634 72.44014,71.642495 L 72.3591,69.301429 c 0,0 -2.469643,-5.497414 -14.684053,-5.497414 z m -0.12606,1.696043 c 10.572473,0 12.709699,4.866309 12.709699,4.866309 0,0 1.809575,19.386685 -10.129615,20.745453 -11.939173,1.358782 -15.82348,-6.455125 -15.82348,-6.455125 0,0 -3.290547,-4.7064 -2.318966,-12.196466 l 0.490314,-2.330425 c 0,0 4.49956,-4.629746 15.072048,-4.629746 z m 45.691612,0.117863 c 10.57249,0 15.07204,4.629746 15.07204,4.629746 l 0.49031,2.330425 c 0.97158,7.490064 -2.31896,12.196466 -2.31896,12.196466 0,0 -3.88431,7.813894 -15.82348,6.455127 C 90.947754,90.124254 90.334917,77.089146 90.443877,72.266228 l 0.148107,-8.19e-4 c -0.0484,-0.0258 -0.0972,-0.05003 -0.145727,-0.07531 0.0262,-1.053228 0.085,-1.705868 0.085,-1.705868 0,0 2.137225,-4.866309 12.709663,-4.866309 z"
       sodipodi:nodetypes="sccccccscacsccccccsccccsssscccsscccsccccssc"
       inkscape:label="lentes" />
    <g
       id="g22"
       inkscape:label="cejas"
       transform="translate(-21.695841)"
       style="display:none">
      <path
         style="fill:#0b0400;fill-opacity:1;stroke-width:0.275284"
         d="m 70.668472,67.111436 c 5.833623,-3.02398 10.225871,-2.601131 13.159723,-1.422243 2.933846,1.178865 4.409288,3.113725 4.409288,3.113725 0,0 1.299923,1.15068 -0.238792,1.982752 -1.538705,0.832089 -7.452974,-8.209314 -16.942863,-0.777558 -1.21919,0.954776 -1.485713,0.172229 -1.825525,-0.522424 -0.561439,-1.147611 1.438169,-2.374252 1.438169,-2.374252 z"
         id="path5"
         sodipodi:nodetypes="cscsssc"
         inkscape:label="cejaizq" />
      <path
         style="fill:#0b0400;fill-opacity:1;stroke-width:0.275284"
         d="m 131.5385,67.673282 c -5.83363,-3.023981 -10.22587,-2.60113 -13.15973,-1.422242 -2.93384,1.178866 -4.40928,3.113724 -4.40928,3.113724 0,0 -1.29992,1.150681 0.23879,1.982753 1.53871,0.832087 7.45297,-8.209314 16.94286,-0.777559 1.21919,0.954777 1.48571,0.17223 1.82554,-0.522424 0.56144,-1.14761 -1.43818,-2.374252 -1.43818,-2.374252 z"
         id="path5-5"
         sodipodi:nodetypes="cscsssc"
         inkscape:label="cejader" />
    </g>
    <path
       style="display:none;fill:#000000;stroke-width:0.4191"
       d="m 72.793636,109.28452 c 0,0 1.23004,1.66508 2.684052,2.48327 2.128659,1.19778 6.374347,2.18288 9.482999,1.80027 6.217264,-0.76519 -0.839474,1.4929 -0.839474,1.4929 0,0 -8.646371,1.56589 -11.669388,-4.39994 -1.598018,-3.15363 0.341811,-1.3765 0.341811,-1.3765 z"
       id="path6"
       sodipodi:nodetypes="csscsc"
       inkscape:label="boca" />
    <g
       id="g23"
       inkscape:label="ojoizq"
       transform="translate(-21.695841)"
       style="display:none">
      <path
         style="fill:#2b1100;stroke-width:0.531022"
         id="path4-9"
         sodipodi:type="arc"
         sodipodi:cx="78.393677"
         sodipodi:cy="77.832588"
         sodipodi:rx="6.5247684"
         sodipodi:ry="8.8163452"
         sodipodi:start="0"
         sodipodi:end="6.2182555"
         sodipodi:open="true"
         sodipodi:arc-type="arc"
         d="m 84.918445,77.832588 a 6.5247684,8.8163452 0 0 1 -6.41886,8.815184 6.5247684,8.8163452 0 0 1 -6.627238,-8.529012 6.5247684,8.8163452 0 0 1 6.203716,-9.092065 6.5247684,8.8163452 0 0 1 6.828633,8.233852"
         inkscape:label="ojo" />
      <path
         id="path4-9-6"
         style="fill:#110700;fill-opacity:1;stroke-width:0.531022"
         d="m 76.297369,69.599023 a 6.5247686,8.8163453 0 0 0 -4.600269,8.706967 6.5247686,8.8163453 0 0 0 6.627013,8.529338 6.5247686,8.8163453 0 0 0 3.554987,-1.538881 6.5247686,8.8163453 0 0 1 -1.816372,0.401091 6.5247686,8.8163453 0 0 1 -6.627013,-8.529339 6.5247686,8.8163453 0 0 1 2.861654,-7.569176 z"
         inkscape:label="sombra_ojo" />
      <path
         style="fill:#ffffff;fill-opacity:1;stroke-width:0.354531"
         id="path11"
         sodipodi:type="arc"
         sodipodi:cx="81.484657"
         sodipodi:cy="75.732368"
         sodipodi:rx="3.0402799"
         sodipodi:ry="3.014446"
         sodipodi:start="0"
         sodipodi:end="6.2182555"
         sodipodi:open="true"
         sodipodi:arc-type="arc"
         d="m 84.524937,75.732368 a 3.0402799,3.014446 0 0 1 -2.990931,3.014049 3.0402799,3.014446 0 0 1 -3.088027,-2.916202 3.0402799,3.014446 0 0 1 2.890683,-3.108719 3.0402799,3.014446 0 0 1 3.181869,2.815283"
         inkscape:label="pupila" />
    </g>
    <g
       id="g24"
       inkscape:label="ojoder"
       transform="translate(-21.695841)"
       style="display:none">
      <path
         style="fill:#2b1100;stroke-width:0.531022"
         id="path4-9-7"
         sodipodi:type="arc"
         sodipodi:cx="123.1003"
         sodipodi:cy="77.768242"
         sodipodi:rx="6.5247684"
         sodipodi:ry="8.8163452"
         sodipodi:start="0"
         sodipodi:end="6.2182555"
         sodipodi:open="true"
         sodipodi:arc-type="arc"
         d="m 129.62507,77.768242 a 6.5247684,8.8163452 0 0 1 -6.41886,8.815184 6.5247684,8.8163452 0 0 1 -6.62724,-8.529013 6.5247684,8.8163452 0 0 1 6.20372,-9.092065 6.5247684,8.8163452 0 0 1 6.82863,8.233852"
         inkscape:label="ojo" />
      <path
         id="path4-9-6-7"
         style="fill:#110700;fill-opacity:1;stroke-width:0.531022"
         d="m 121.00409,69.534685 a 6.5247686,8.8163453 0 0 0 -4.6003,8.706966 6.5247686,8.8163453 0 0 0 6.62705,8.529339 6.5247686,8.8163453 0 0 0 3.555,-1.538881 6.5247686,8.8163453 0 0 1 -1.81637,0.401089 6.5247686,8.8163453 0 0 1 -6.62706,-8.529338 6.5247686,8.8163453 0 0 1 2.86168,-7.569175 z"
         inkscape:label="sombra_ojo" />
      <path
         style="fill:#ffffff;fill-opacity:1;stroke-width:0.354531"
         id="path11-1"
         sodipodi:type="arc"
         sodipodi:cx="126.19127"
         sodipodi:cy="75.66803"
         sodipodi:rx="3.0402799"
         sodipodi:ry="3.014446"
         sodipodi:start="0"
         sodipodi:end="6.2182555"
         sodipodi:open="true"
         sodipodi:arc-type="arc"
         d="m 129.23155,75.66803 a 3.0402799,3.014446 0 0 1 -2.99093,3.014049 3.0402799,3.014446 0 0 1 -3.08803,-2.916203 3.0402799,3.014446 0 0 1 2.89068,-3.108719 3.0402799,3.014446 0 0 1 3.18187,2.815283"
         inkscape:label="pupila" />
    </g>
    <path
       style="fill:#c37b32;fill-opacity:1;stroke-width:0.373782"
       d="m 77.403228,95.147077 h 5.226101 c 0,0 0.0984,1.70894 -2.366535,1.77222 -2.465144,0.0633 -2.859566,-1.77222 -2.859566,-1.77222 z"
       id="path9"
       inkscape:label="nariz" />
    <g
       id="g25"
       inkscape:label="orejaizq"
       transform="translate(-21.695841)">
      <path
         id="path12"
         style="fill:#e8a25a;fill-opacity:1;stroke-width:0.36568"
         d="m 54.513564,75.857063 a 4.8493579,8.5308034 0 0 0 -4.610304,8.797824 4.8493579,8.5308034 0 0 0 4.925635,8.25267 4.8493579,8.5308034 0 0 0 1.285002,-0.35034 V 76.212314 a 4.8493579,8.5308034 0 0 0 -1.600333,-0.355251 z"
         inkscape:label="oreja" />
      <path
         style="fill:#864d13;fill-opacity:1;stroke-width:0.299906"
         d="m 51.549068,83.891634 c 0,0 4.18742,1.05705 3.892533,3.412748 -0.294892,2.355721 -0.82569,-2.808722 -3.184799,-2.718116 -2.359114,0.0906 -0.707734,-0.694632 -0.707734,-0.694632 z"
         id="path13"
         inkscape:label="sombra_oreja" />
    </g>
    <g
       id="g26"
       inkscape:label="orejader"
       transform="translate(-21.695841)">
      <path
         id="path12-3"
         style="fill:#e9a762;fill-opacity:1;stroke-width:0.36568"
         d="m 145.98831,75.664877 a 4.8493579,8.5308034 0 0 1 4.61032,8.797825 4.8493579,8.5308034 0 0 1 -4.92567,8.252685 4.8493579,8.5308034 0 0 1 -1.28499,-0.35035 V 76.020129 a 4.8493579,8.5308034 0 0 1 1.60034,-0.355252 z"
         inkscape:label="oreja" />
      <path
         style="fill:#864d13;fill-opacity:1;stroke-width:0.299906"
         d="m 148.95281,83.699449 c 0,0 -4.18744,1.057049 -3.89256,3.41275 0.2949,2.355738 0.82571,-2.808725 3.18483,-2.718119 2.35911,0.09061 0.70773,-0.694631 0.70773,-0.694631 z"
         id="path13-9"
         inkscape:label="sombra_oreja" />
    </g>
    <g
       id="g27"
       inkscape:label="cuerpo"
       transform="translate(-21.695841)">
      <path
         id="rect17"
         style="fill:#004f90;fill-opacity:1;stroke-width:0.4191"
         d="m 42.466801,143.44348 c -8.707528,2.90419 -8.802672,20.70549 -8.802672,20.70549 v 29.08899 H 171.3524 v -29.08899 c 0,0 0.52641,-16.72315 -8.3457,-20.29864 -8.87213,-3.57549 -9.7233,-3.58268 -15.19754,-4.56555 -5.47424,-0.98287 -15.21943,-2.54838 -15.21943,-2.54838 l -12.92088,-1.6764 0.0295,0.62702 c -4.1e-4,6.1952 -7.18441,11.24529 -16.14027,11.34597 -8.956129,0.10076 -16.373789,-4.78547 -16.664955,-10.97761 -0.0055,-0.33211 0.01001,-0.66423 0.04666,-0.99538 l -13.318906,1.6764 c 0,0 -12.05218,1.48929 -17.633325,2.42178 -5.581145,0.93249 -4.813192,1.38113 -13.520719,4.2853 z"
         sodipodi:nodetypes="zcccczzcccsccczz"
         inkscape:label="cuerpo" />
      <path
         style="fill:#001e4f;fill-opacity:1;stroke-width:0.4191"
         d="m 54.554764,193.26272 2.967964,-26.2877 0.14134,26.2877 z"
         id="path19"
         inkscape:label="sombra_izq" />
      <path
         style="fill:#001e4f;fill-opacity:1;stroke-width:0.4191"
         d="m 152.68468,193.30407 -2.96798,-26.28769 -0.14129,26.28769 z"
         id="path19-1"
         inkscape:label="sombra_der" />
    </g>
  </g>
</svg>
